<svg width="196" height="65" viewBox="0 0 196 65" fill="none" xmlns="http://www.w3.org/2000/svg">
<path d="M2.7773 31.4189C1.40484 31.4189 0.292236 30.3208 0.292236 28.9661L0.292237 15.2705C0.292237 13.9158 1.40484 12.8177 2.77731 12.8177L16.8513 12.8177C18.2238 12.8177 19.3364 13.9158 19.3364 15.2705L19.3364 25.4231C19.3364 28.7345 16.6167 31.4189 13.2618 31.4189L2.7773 31.4189Z" fill="white"/>
<path d="M21.9407 14.8601C21.9407 13.4876 23.0388 12.375 24.3935 12.375H38.0891C39.4438 12.375 40.5419 13.4876 40.5419 14.8601V28.9341C40.5419 30.3066 39.4438 31.4192 38.0891 31.4192H27.9365C24.6251 31.4192 21.9407 28.6995 21.9407 25.3445V14.8601Z" fill="white"/>
<path d="M2.7773 34.0234C1.40484 34.0234 0.292236 35.1216 0.292236 36.4763L0.292237 50.1719C0.292237 51.5265 1.40484 52.6247 2.77731 52.6247L16.8513 52.6247C18.2238 52.6247 19.3364 51.5265 19.3364 50.1719L19.3364 40.0192C19.3364 36.7078 16.6167 34.0234 13.2618 34.0234L2.7773 34.0234Z" fill="white"/>
<path d="M38.2828 34.0234C39.6552 34.0234 40.7678 35.1216 40.7678 36.4763L40.7678 50.1719C40.7678 51.5265 39.6552 52.6247 38.2828 52.6247L24.2087 52.6247C22.8363 52.6247 21.7237 51.5265 21.7237 50.1719L21.7237 40.0192C21.7237 36.7078 24.4434 34.0234 27.7983 34.0234L38.2828 34.0234Z" fill="white"/>
<path d="M75.8496 43.5L70.846 34.4861C73.1271 33.6767 75.7392 31.3956 75.7392 27.1278C75.7392 22.5657 72.6488 18.9601 67.2036 18.9601H54.9153V43.5H61.2434V35.2587H64.4811L68.6017 43.5H75.8496ZM66.2471 29.74H61.2434V24.4788H66.2471C67.9027 24.4788 69.3007 25.4354 69.3007 27.091C69.3007 28.8202 67.9027 29.74 66.2471 29.74ZM96.2921 43.5V25.7298H90.6263V37.2087C89.964 38.0549 88.8603 38.9379 87.2414 38.9379C85.4019 38.9379 84.2981 38.202 84.2981 36.0681V25.7298H78.6323V38.386C78.6323 41.6604 80.435 43.9415 84.4821 43.9415C87.4622 43.9415 89.5225 42.617 90.6263 41.3661V43.5H96.2921ZM105.611 37.3558V31.9107C106.31 30.9541 107.782 30.2919 108.996 30.2919C111.24 30.2919 112.933 31.9475 112.933 34.5965C112.933 37.2823 111.24 38.9379 108.996 38.9379C107.782 38.9379 106.31 38.3124 105.611 37.3558ZM105.611 43.5V41.4397C107.083 43.1321 108.886 43.9415 110.872 43.9415C115.251 43.9415 118.709 40.6303 118.709 34.5965C118.709 28.7834 115.287 25.2883 110.872 25.2883C108.922 25.2883 107.009 26.0609 105.611 27.8269V18.9601H99.9454V43.5H105.611ZM123.43 39.4162V29.8872C124.534 28.0108 127.072 26.2816 129.832 26.2816C134.173 26.2816 136.565 29.9608 136.565 34.6333C136.565 39.3058 134.173 42.9481 129.832 42.9481C127.072 42.9481 124.534 41.2925 123.43 39.4162ZM123.43 43.5V40.5199C124.644 42.3595 127.036 43.9415 129.832 43.9415C134.615 43.9415 137.779 40.2624 137.779 34.6333C137.779 29.041 134.615 25.2883 129.832 25.2883C127.183 25.2883 124.865 26.6863 123.43 28.7834V18.9601H122.326V43.5H123.43ZM155.288 43.5V30.6598C155.288 27.0542 152.676 25.2883 149.181 25.2883C146.201 25.2883 144.361 26.3184 142.632 28.3419L143.478 29.0778C145.134 27.091 146.863 26.2816 149.181 26.2816C151.903 26.2816 154.184 27.8269 154.184 30.6966V34.7069C152.529 32.9041 150.542 32.0947 148.04 32.0947C144.876 32.0947 141.822 34.2286 141.822 38.0181C141.822 41.8076 144.913 43.9415 148.04 43.9415C150.542 43.9415 152.529 43.1321 154.184 41.3293V43.5H155.288ZM148.334 42.9481C145.097 42.9481 143.036 40.7774 143.036 38.0181C143.036 35.2587 145.097 33.088 148.334 33.088C150.652 33.088 152.823 34.0078 154.184 35.8106V40.2256C152.823 42.0283 150.652 42.9481 148.334 42.9481ZM174.242 43.5V31.1013C174.242 26.9071 172.218 25.2883 168.686 25.2883C166.221 25.2883 163.572 26.9071 162.248 28.5259V25.7298H161.144V43.5H162.248V29.6296C163.499 27.8637 166.111 26.2816 168.539 26.2816C171.299 26.2816 173.138 27.3854 173.138 31.1013V43.5H174.242ZM194.287 43.5L185.751 33.7503L194.397 25.7298H192.815L181.226 36.5464V18.9601H180.122V43.5H181.226V37.9445L184.905 34.5597L192.705 43.5H194.287Z" fill="white"/>
</svg>
