<svg width="237" height="82" viewBox="0 0 237 82" fill="none" xmlns="http://www.w3.org/2000/svg">
<path d="M23.2771 39.9193C21.9046 39.9193 20.792 38.8211 20.792 37.4665L20.792 23.7709C20.792 22.4162 21.9046 21.318 23.2771 21.318L37.3511 21.318C38.7235 21.318 39.8361 22.4162 39.8361 23.7709L39.8361 33.9235C39.8361 37.2349 37.1165 39.9193 33.7615 39.9193L23.2771 39.9193Z" fill="white"/>
<path d="M42.4404 23.3602C42.4404 21.9878 43.5386 20.8752 44.8933 20.8752H58.5889C59.9435 20.8752 61.0417 21.9878 61.0417 23.3602V37.4342C61.0417 38.8067 59.9435 39.9193 58.5889 39.9193H48.4362C45.1248 39.9193 42.4404 37.1996 42.4404 33.8447V23.3602Z" fill="white"/>
<path d="M23.2771 42.5236C21.9046 42.5236 20.792 43.6218 20.792 44.9764L20.792 58.6721C20.792 60.0267 21.9046 61.1249 23.2771 61.1249L37.3511 61.1249C38.7235 61.1249 39.8361 60.0267 39.8361 58.6721L39.8361 48.5194C39.8361 45.208 37.1165 42.5236 33.7615 42.5236L23.2771 42.5236Z" fill="white"/>
<path d="M58.7825 42.5236C60.155 42.5236 61.2676 43.6218 61.2676 44.9764L61.2676 58.6721C61.2676 60.0267 60.155 61.1249 58.7825 61.1249L44.7085 61.1249C43.336 61.1249 42.2234 60.0267 42.2234 58.6721L42.2234 48.5194C42.2234 45.208 44.9431 42.5236 48.298 42.5236L58.7825 42.5236Z" fill="white"/>
<path d="M96.3493 52L91.3457 42.9861C93.6267 42.1767 96.2389 39.8956 96.2389 35.6278C96.2389 31.0657 93.1485 27.4601 87.7033 27.4601H75.415V52H81.7431V43.7587H84.9808L89.1014 52H96.3493ZM86.7468 38.24H81.7431V32.9789H86.7468C88.4024 32.9789 89.8004 33.9354 89.8004 35.5911C89.8004 37.3202 88.4024 38.24 86.7468 38.24ZM116.792 52V34.2298H111.126V45.7087C110.464 46.5549 109.36 47.4379 107.741 47.4379C105.902 47.4379 104.798 46.7021 104.798 44.5682V34.2298H99.1319V46.886C99.1319 50.1604 100.935 52.4415 104.982 52.4415C107.962 52.4415 110.022 51.117 111.126 49.8661V52H116.792ZM126.111 45.8559V40.4107C126.81 39.4541 128.282 38.7919 129.496 38.7919C131.74 38.7919 133.432 40.4475 133.432 43.0965C133.432 45.7823 131.74 47.4379 129.496 47.4379C128.282 47.4379 126.81 46.8124 126.111 45.8559ZM126.111 52V49.9397C127.583 51.6321 129.385 52.4415 131.372 52.4415C135.75 52.4415 139.209 49.1303 139.209 43.0965C139.209 37.2835 135.787 33.7883 131.372 33.7883C129.422 33.7883 127.509 34.5609 126.111 36.3269V27.4601H120.445V52H126.111ZM143.93 47.9162V38.3872C145.034 36.5108 147.572 34.7816 150.331 34.7816C154.673 34.7816 157.064 38.4608 157.064 43.1333C157.064 47.8058 154.673 51.4481 150.331 51.4481C147.572 51.4481 145.034 49.7925 143.93 47.9162ZM143.93 52V49.0199C145.144 50.8595 147.535 52.4415 150.331 52.4415C155.114 52.4415 158.278 48.7624 158.278 43.1333C158.278 37.541 155.114 33.7883 150.331 33.7883C147.683 33.7883 145.365 35.1863 143.93 37.2835V27.4601H142.826V52H143.93ZM175.788 52V39.1598C175.788 35.5543 173.176 33.7883 169.68 33.7883C166.7 33.7883 164.861 34.8184 163.131 36.842L163.978 37.5778C165.633 35.5911 167.362 34.7816 169.68 34.7816C172.403 34.7816 174.684 36.3269 174.684 39.1966V43.2069C173.028 41.4041 171.042 40.5947 168.54 40.5947C165.376 40.5947 162.322 42.7286 162.322 46.5181C162.322 50.3076 165.413 52.4415 168.54 52.4415C171.042 52.4415 173.028 51.6321 174.684 49.8293V52H175.788ZM168.834 51.4481C165.596 51.4481 163.536 49.2775 163.536 46.5181C163.536 43.7587 165.596 41.588 168.834 41.588C171.152 41.588 173.323 42.5078 174.684 44.3106V48.7256C173.323 50.5284 171.152 51.4481 168.834 51.4481ZM194.742 52V39.6013C194.742 35.4071 192.718 33.7883 189.186 33.7883C186.721 33.7883 184.072 35.4071 182.748 37.0259V34.2298H181.644V52H182.748V38.1297C183.999 36.3637 186.611 34.7816 189.039 34.7816C191.798 34.7816 193.638 35.8854 193.638 39.6013V52H194.742ZM214.786 52L206.251 42.2503L214.897 34.2298H213.315L201.725 45.0464V27.4601H200.622V52H201.725V46.4445L205.404 43.0597L213.204 52H214.786Z" fill="white"/>
</svg>
