<svg width="198" height="44" viewBox="0 0 198 44" fill="none" xmlns="http://www.w3.org/2000/svg">
<path d="M2.91477 20.8589C1.46558 20.8589 0.290772 19.6993 0.290772 18.2689L0.290772 3.8076C0.290772 2.3772 1.46558 1.21764 2.91478 1.21764L17.7756 1.21764C19.2248 1.21764 20.3996 2.3772 20.3996 3.8076L20.3996 14.5278C20.3996 18.0244 17.5279 20.8589 13.9854 20.8589L2.91477 20.8589Z" fill="white"/>
<path d="M23.1495 3.374C23.1495 1.9248 24.3091 0.75 25.7395 0.75H40.2008C41.6312 0.75 42.7908 1.92481 42.7908 3.374V18.2349C42.7908 19.6841 41.6312 20.8589 40.2008 20.8589H29.4805C25.984 20.8589 23.1495 17.9871 23.1495 14.4446V3.374Z" fill="white"/>
<path d="M2.91477 23.6088C1.46558 23.6088 0.290772 24.7683 0.290772 26.1987L0.290772 40.66C0.290772 42.0904 1.46558 43.25 2.91478 43.25L17.7756 43.25C19.2248 43.25 20.3996 42.0904 20.3996 40.66L20.3996 29.9398C20.3996 26.4433 17.5279 23.6088 13.9854 23.6088L2.91477 23.6088Z" fill="white"/>
<path d="M40.4053 23.6088C41.8545 23.6088 43.0293 24.7684 43.0293 26.1988L43.0293 40.6601C43.0293 42.0905 41.8545 43.25 40.4053 43.25L25.5444 43.25C24.0952 43.25 22.9204 42.0905 22.9204 40.6601L22.9204 29.9398C22.9204 26.4433 25.7921 23.6088 29.3346 23.6088L40.4053 23.6088Z" fill="white"/>
<path d="M69.4356 34.5L64.1523 24.9822C66.5609 24.1275 69.3191 21.7189 69.3191 17.2125C69.3191 12.3953 66.0558 8.58817 60.3063 8.58817H47.3309V34.5H54.0128V25.798H57.4315L61.7825 34.5H69.4356ZM59.2962 19.9707H54.0128V14.4154H59.2962C61.0444 14.4154 62.5206 15.4255 62.5206 17.1736C62.5206 18.9995 61.0444 19.9707 59.2962 19.9707ZM91.021 34.5V15.7363H85.0384V27.8569C84.3391 28.7504 83.1737 29.6828 81.4643 29.6828C79.5219 29.6828 78.3565 28.9058 78.3565 26.6526V15.7363H72.3738V29.1001C72.3738 32.5576 74.2774 34.9662 78.5507 34.9662C81.6974 34.9662 83.8729 33.5676 85.0384 32.2468V34.5H91.021ZM100.861 28.0123V22.2628C101.599 21.2527 103.153 20.5535 104.435 20.5535C106.805 20.5535 108.592 22.3016 108.592 25.0987C108.592 27.9346 106.805 29.6828 104.435 29.6828C103.153 29.6828 101.599 29.0224 100.861 28.0123ZM100.861 34.5V32.3245C102.415 34.1115 104.319 34.9662 106.416 34.9662C111.039 34.9662 114.691 31.4698 114.691 25.0987C114.691 18.9607 111.078 15.2701 106.416 15.2701C104.358 15.2701 102.337 16.0859 100.861 17.9506V8.58817H94.8785V34.5H100.861ZM126.358 34.9662C129.427 34.9662 131.175 33.8007 132.768 31.8195L131.913 31.0813C130.398 33.1403 128.611 33.9173 126.436 33.9173C121.619 33.9173 118.783 29.9936 118.783 25.0987C118.783 20.2038 121.619 16.319 126.436 16.319C128.611 16.319 130.398 17.0571 131.913 19.1161L132.768 18.4168C131.175 16.4355 129.427 15.2701 126.358 15.2701C120.919 15.2701 117.501 19.6988 117.501 25.0987C117.501 30.4986 120.919 34.9662 126.358 34.9662ZM151.014 34.5V15.7363H149.848V30.4986C148.527 32.3633 145.769 33.9173 143.205 33.9173C140.292 33.9173 138.349 32.8295 138.349 28.9058V15.7363H137.184V28.9058C137.184 33.3346 139.32 34.9662 143.05 34.9662C145.653 34.9662 148.256 33.4122 149.848 31.6252V34.5H151.014ZM158.388 30.1878V20.1261C159.553 18.1449 162.234 16.319 165.148 16.319C169.732 16.319 172.257 20.2038 172.257 25.1376C172.257 30.0713 169.732 33.9173 165.148 33.9173C162.234 33.9173 159.553 32.1691 158.388 30.1878ZM158.388 34.5V31.3533C159.67 33.2957 162.195 34.9662 165.148 34.9662C170.198 34.9662 173.539 31.0813 173.539 25.1376C173.539 19.2326 170.198 15.2701 165.148 15.2701C162.35 15.2701 159.903 16.7463 158.388 18.9607V8.58817H157.223V34.5H158.388ZM186.938 34.9662C190.085 34.9662 192.26 33.8007 194.164 31.8195L193.464 31.0813C191.716 32.9461 189.58 33.9173 186.938 33.9173C182.159 33.9173 179.168 30.0713 179.052 25.4872H195.251V25.0987C195.251 19.893 192.299 15.2701 186.549 15.2701C181.499 15.2701 177.731 19.6599 177.731 25.0987C177.731 30.8094 181.499 34.9662 186.938 34.9662ZM194.008 24.4383H179.052C179.168 20.7477 181.693 16.319 186.511 16.319C191.638 16.319 194.008 20.8254 194.008 24.4383Z" fill="white"/>
</svg>
