<svg width="56" height="56" viewBox="0 0 56 56" fill="none" xmlns="http://www.w3.org/2000/svg">
<mask id="mask0_69_533" style="mask-type:alpha" maskUnits="userSpaceOnUse" x="0" y="0" width="56" height="56">
<rect width="56" height="56" fill="#D9D9D9"/>
</mask>
<g mask="url(#mask0_69_533)">
<path d="M27.2546 53.6667V48.2222C24.7916 47.7901 22.7716 46.8503 21.1944 45.4028C19.6172 43.9552 18.483 42.1296 17.7916 39.9259L21.4213 38.4352C22.1558 40.5093 23.2145 42.054 24.5972 43.0694C25.9799 44.0849 27.6435 44.5926 29.5879 44.5926C31.662 44.5926 33.3688 44.0741 34.7083 43.037C36.0478 42 36.7176 40.5741 36.7176 38.7593C36.7176 36.858 36.1234 35.3889 34.9351 34.3519C33.7469 33.3148 31.5108 32.2562 28.2268 31.1759C25.1157 30.1821 22.7932 28.8642 21.2592 27.2222C19.7253 25.5802 18.9583 23.5278 18.9583 21.0648C18.9583 18.6883 19.7253 16.7006 21.2592 15.1019C22.7932 13.5031 24.7916 12.5957 27.2546 12.3796V7H31.1435V12.3796C33.0879 12.5957 34.7623 13.233 36.1666 14.2917C37.5709 15.3503 38.6404 16.7006 39.375 18.3426L35.7453 19.8981C35.1404 18.5154 34.3302 17.5108 33.3148 16.8843C32.2993 16.2577 30.9706 15.9444 29.3287 15.9444C27.341 15.9444 25.7638 16.3981 24.5972 17.3056C23.4305 18.213 22.8472 19.4444 22.8472 21C22.8472 22.642 23.4953 23.9707 24.7916 24.9861C26.0879 26.0015 28.4861 27.0494 31.9861 28.1296C34.9243 29.037 37.0956 30.3441 38.5 32.0509C39.9043 33.7577 40.6064 35.9074 40.6064 38.5C40.6064 41.2222 39.8071 43.4151 38.2083 45.0787C36.6095 46.7423 34.2546 47.8117 31.1435 48.287V53.6667H27.2546Z" fill="#6B7AE5"/>
</g>
</svg>
