<svg width="56" height="56" viewBox="0 0 56 56" fill="none" xmlns="http://www.w3.org/2000/svg">
<mask id="mask0_69_520" style="mask-type:alpha" maskUnits="userSpaceOnUse" x="0" y="0" width="56" height="56">
<rect width="56" height="56" fill="#D9D9D9"/>
</mask>
<g mask="url(#mask0_69_520)">
<path d="M28.3516 39.3748C28.9728 39.3748 29.4972 39.1604 29.925 38.7315C30.3528 38.3027 30.5667 37.7777 30.5667 37.1565C30.5667 36.5354 30.3522 36.0109 29.9234 35.5832C29.4945 35.1554 28.9695 34.9415 28.3484 34.9415C27.7272 34.9415 27.2028 35.1559 26.775 35.5848C26.3472 36.0137 26.1333 36.5387 26.1333 37.1598C26.1333 37.7809 26.3478 38.3054 26.7766 38.7332C27.2055 39.1609 27.7305 39.3748 28.3516 39.3748ZM26.425 30.7415H29.75C29.75 30.1582 29.7889 29.6429 29.8667 29.1957C29.9444 28.7484 30.0806 28.3109 30.275 27.8832C30.4694 27.4554 30.7417 27.0276 31.0917 26.5998C31.4417 26.1721 31.8722 25.7026 32.3833 25.1915C33.6611 23.9137 34.5528 22.779 35.0583 21.7873C35.5639 20.7957 35.8167 19.7554 35.8167 18.6665C35.8167 16.6054 35.1556 14.9721 33.8333 13.7665C32.5111 12.5609 30.7315 11.9582 28.4945 11.9582C26.4775 11.9582 24.763 12.4346 23.3512 13.3873C21.9393 14.3401 20.9028 15.6526 20.2417 17.3248L23.3333 18.6082C23.8778 17.5193 24.5817 16.6929 25.445 16.129C26.3083 15.5651 27.3156 15.2832 28.4667 15.2832C29.7111 15.2832 30.6931 15.5943 31.4125 16.2165C32.1319 16.8387 32.4917 17.6962 32.4917 18.7889C32.4917 19.5629 32.2778 20.3096 31.85 21.029C31.4222 21.7484 30.7028 22.6038 29.6917 23.5949C29.0306 24.1982 28.4958 24.7498 28.0875 25.2498C27.6792 25.7498 27.3389 26.2776 27.0667 26.8332C26.8363 27.3922 26.6718 27.9792 26.573 28.5941C26.4743 29.209 26.425 29.9248 26.425 30.7415ZM28 53.6665L21 46.6665H10.5C9.56667 46.6665 8.75 46.3068 8.05 45.5873C7.35 44.8679 7 44.0609 7 43.1665V8.1665C7 7.23317 7.35 6.4165 8.05 5.7165C8.75 5.0165 9.56667 4.6665 10.5 4.6665H45.5C46.3944 4.6665 47.2014 5.0165 47.9208 5.7165C48.6403 6.4165 49 7.23317 49 8.1665V43.1665C49 44.0609 48.6403 44.8679 47.9208 45.5873C47.2014 46.3068 46.3944 46.6665 45.5 46.6665H35L28 53.6665ZM10.5 43.1665H22.4L28 48.7665L33.6 43.1665H45.5V8.1665H10.5V43.1665Z" fill="#6B7AE5"/>
</g>
</svg>
