<svg width="56" height="56" viewBox="0 0 56 56" fill="none" xmlns="http://www.w3.org/2000/svg">
<mask id="mask0_69_526" style="mask-type:alpha" maskUnits="userSpaceOnUse" x="0" y="0" width="56" height="56">
<rect width="56" height="56" fill="#D9D9D9"/>
</mask>
<g mask="url(#mask0_69_526)">
<path d="M4.66663 51.3334V8.16676C4.66663 7.23343 5.01663 6.41676 5.71663 5.71676C6.41663 5.01676 7.23329 4.66676 8.16663 4.66676H33.6583C33.5027 5.21121 33.3861 5.78482 33.3083 6.3876C33.2305 6.99038 33.2111 7.58343 33.25 8.16676H8.16663V43.1668L12.4833 38.5001H47.8333V18.1418C48.4864 17.9473 49.0969 17.6848 49.6648 17.3543C50.2327 17.0237 50.7889 16.6445 51.3333 16.2168V38.5001C51.3333 39.4334 50.9833 40.2501 50.2833 40.9501C49.5833 41.6501 48.7666 42.0001 47.8333 42.0001H14L4.66663 51.3334ZM44.3264 14.0584C42.5421 14.0584 41.0277 13.4339 39.7833 12.1849C38.5389 10.9359 37.9166 9.41922 37.9166 7.63488C37.9166 5.85058 38.5411 4.33621 39.7902 3.09176C41.0392 1.84732 42.5558 1.2251 44.3402 1.2251C46.1245 1.2251 47.6389 1.84961 48.8833 3.09865C50.1277 4.34764 50.75 5.86431 50.75 7.64865C50.75 9.43295 50.1254 10.9473 48.8764 12.1918C47.6274 13.4362 46.1108 14.0584 44.3264 14.0584Z" fill="#6B7AE5"/>
</g>
</svg>
